<svg width="32" height="38" viewBox="0 0 32 38" fill="none" xmlns="http://www.w3.org/2000/svg">
  <path fill-rule="evenodd" clip-rule="evenodd"
        d="M16 37.3334C16 37.3334 31 27.3334 31 15.6667C31 11.6884 29.4196 7.87313 26.6066 5.06008C23.7936 2.24704 19.9782 0.666687 16 0.666687C12.0218 0.666687 8.20644 2.24704 5.3934 5.06008C2.58035 7.87313 1 11.6884 1 15.6667C1 27.3334 16 37.3334 16 37.3334ZM21 15.6667C21 18.4281 18.7614 20.6667 16 20.6667C13.2386 20.6667 11 18.4281 11 15.6667C11 12.9053 13.2386 10.6667 16 10.6667C18.7614 10.6667 21 12.9053 21 15.6667Z"
        fill="#0CA4FA"/>
  <path
    d="M16 37.3334L15.6533 37.8534C15.8632 37.9933 16.1367 37.9933 16.3467 37.8534L16 37.3334ZM26.6066 5.06008L27.0485 4.61814L27.0485 4.61814L26.6066 5.06008ZM5.3934 5.06008L4.95146 4.61814L4.95146 4.61814L5.3934 5.06008ZM30.375 15.6667C30.375 21.2488 26.7714 26.5131 23.0463 30.4452C21.1965 32.3977 19.3446 33.9927 17.9544 35.0996C17.2598 35.6527 16.6818 36.083 16.2786 36.3742C16.077 36.5198 15.9193 36.6305 15.8126 36.7044C15.7593 36.7413 15.7187 36.7691 15.6919 36.7873C15.6784 36.7964 15.6684 36.8032 15.662 36.8075C15.6587 36.8097 15.6564 36.8113 15.6549 36.8122C15.6542 36.8127 15.6537 36.8131 15.6534 36.8132C15.6533 36.8133 15.6533 36.8133 15.6532 36.8134C15.6532 36.8134 15.6533 36.8133 16 37.3334C16.3467 37.8534 16.3469 37.8533 16.3471 37.8531C16.3473 37.853 16.3476 37.8528 16.3479 37.8526C16.3486 37.8521 16.3494 37.8516 16.3505 37.8508C16.3527 37.8494 16.3558 37.8473 16.3598 37.8446C16.3677 37.8393 16.3792 37.8315 16.3942 37.8213C16.4241 37.801 16.4678 37.7712 16.5243 37.732C16.6374 37.6537 16.8019 37.5382 17.0105 37.3876C17.4276 37.0863 18.0214 36.6442 18.7331 36.0775C20.1554 34.9449 22.0535 33.3106 23.9537 31.3049C27.7286 27.3203 31.625 21.7512 31.625 15.6667H30.375ZM26.1647 5.50203C28.8605 8.19786 30.375 11.8542 30.375 15.6667H31.625C31.625 11.5227 29.9788 7.5484 27.0485 4.61814L26.1647 5.50203ZM16 1.29169C19.8125 1.29169 23.4688 2.80619 26.1647 5.50203L27.0485 4.61814C24.1183 1.68789 20.144 0.0416871 16 0.0416871V1.29169ZM5.83534 5.50203C8.53117 2.80619 12.1875 1.29169 16 1.29169V0.0416871C11.856 0.0416871 7.88171 1.68789 4.95146 4.61814L5.83534 5.50203ZM1.625 15.6667C1.625 11.8542 3.1395 8.19786 5.83534 5.50203L4.95146 4.61814C2.0212 7.5484 0.375 11.5227 0.375 15.6667H1.625ZM16 37.3334C16.3467 36.8133 16.3468 36.8134 16.3468 36.8134C16.3467 36.8133 16.3467 36.8133 16.3465 36.8132C16.3463 36.8131 16.3458 36.8127 16.3451 36.8122C16.3436 36.8113 16.3413 36.8097 16.338 36.8075C16.3316 36.8032 16.3216 36.7964 16.3081 36.7873C16.2813 36.7691 16.2407 36.7413 16.1874 36.7044C16.0807 36.6305 15.923 36.5198 15.7214 36.3742C15.3182 36.083 14.7402 35.6527 14.0456 35.0996C12.6554 33.9927 10.8035 32.3977 8.95372 30.4452C5.22859 26.5131 1.625 21.2488 1.625 15.6667H0.375C0.375 21.7512 4.27141 27.3203 8.04628 31.3049C9.94649 33.3106 11.8446 34.9449 13.2669 36.0775C13.9786 36.6442 14.5724 37.0863 14.9895 37.3876C15.1981 37.5382 15.3626 37.6537 15.4757 37.732C15.5322 37.7712 15.5759 37.801 15.6058 37.8213C15.6208 37.8315 15.6323 37.8393 15.6402 37.8446C15.6442 37.8473 15.6473 37.8494 15.6495 37.8508C15.6506 37.8516 15.6514 37.8521 15.6521 37.8526C15.6524 37.8528 15.6527 37.853 15.6529 37.8531C15.6531 37.8533 15.6533 37.8534 16 37.3334ZM16 21.2917C19.1066 21.2917 21.625 18.7733 21.625 15.6667H20.375C20.375 18.0829 18.4162 20.0417 16 20.0417V21.2917ZM10.375 15.6667C10.375 18.7733 12.8934 21.2917 16 21.2917V20.0417C13.5838 20.0417 11.625 18.0829 11.625 15.6667H10.375ZM16 10.0417C12.8934 10.0417 10.375 12.5601 10.375 15.6667H11.625C11.625 13.2504 13.5838 11.2917 16 11.2917V10.0417ZM21.625 15.6667C21.625 12.5601 19.1066 10.0417 16 10.0417V11.2917C18.4162 11.2917 20.375 13.2504 20.375 15.6667H21.625Z"
    fill="white"/>
</svg>
